<svg width="24" height="25" viewBox="0 0 24 25" fill="none" xmlns="http://www.w3.org/2000/svg">
<path d="M18 2.75H17.25V2C17.25 1.625 16.875 1.25 16.5 1.25C16.125 1.25 15.75 1.625 15.75 2V2.75H12H8.25V2C8.25 1.625 7.875 1.25 7.5 1.25C7.125 1.25 6.75 1.625 6.75 2V2.75H6C3.075 2.75 0.75 5.075 0.75 8V11V18.5C0.75 21.425 3.075 23.75 6 23.75H12H18C20.925 23.75 23.25 21.425 23.25 18.5V11V8C23.25 5.075 20.925 2.75 18 2.75Z" fill="#FFC10A"/>
<path d="M18 2.75H12H6C3.075 2.75 0.75 5.075 0.75 8V11C0.75 11.375 1.125 11.75 1.5 11.75H12H22.5C22.875 11.75 23.25 11.375 23.25 11V8C23.25 5.075 20.925 2.75 18 2.75Z" fill="#F44236"/>
<path d="M8.25 2V7.25C8.25 7.625 7.875 8 7.5 8C7.125 8 6.75 7.625 6.75 7.25V2C6.75 1.625 7.125 1.25 7.5 1.25C7.875 1.25 8.25 1.625 8.25 2Z" fill="#673AB7"/>
<path d="M17.25 2V7.25C17.25 7.625 16.875 8 16.5 8C16.125 8 15.75 7.625 15.75 7.25V2C15.75 1.625 16.125 1.25 16.5 1.25C16.875 1.25 17.25 1.625 17.25 2Z" fill="#673AB7"/>
</svg>
