<svg width="72" height="72" viewBox="0 0 72 72" fill="none" xmlns="http://www.w3.org/2000/svg">
<g clip-path="url(#clip0_774_3543)">
<path d="M59.1872 67.9821C60.1591 67.9821 60.9531 67.1881 60.9531 66.2162V22.5066H49.5041C48.4019 22.5066 47.5012 21.6178 47.5012 20.5037V4.00586H12.7991C11.8272 4.00586 11.0332 4.79988 11.0332 5.77173V66.1926C11.0332 67.1644 11.8272 67.9584 12.7991 67.9584H59.1755V67.9821H59.1872Z" fill="white"/>
<path d="M47.075 8.81785C46.6956 8.29645 46.1031 8 45.4631 8H17.0185C15.9163 8 15.0156 8.8888 15.0156 10.0029V61.9851C15.0156 63.0873 15.9044 63.988 17.0185 63.988H54.9682C56.0704 63.988 56.9711 63.0992 56.9711 61.9851V23.1111" fill="#FFC10D"/>
<path d="M51.4013 61.4638H20.456C19.3538 61.4638 18.4531 60.575 18.4531 59.4609C18.4531 58.3587 19.3419 57.458 20.456 57.458H51.4013C52.5035 57.458 53.4042 58.347 53.4042 59.4609C53.3923 60.5749 52.5035 61.4638 51.4013 61.4638Z" fill="#194F82"/>
<path d="M51.4013 52.5395H20.456C19.3538 52.5395 18.4531 51.6507 18.4531 50.5366C18.4531 49.4344 19.3419 48.5337 20.456 48.5337H51.4013C52.5035 48.5337 53.4042 49.4227 53.4042 50.5366C53.3923 51.6505 52.5035 52.5395 51.4013 52.5395Z" fill="#194F82"/>
<path d="M29.8308 43.6269H20.456C19.3538 43.6269 18.4531 42.7381 18.4531 41.624C18.4531 40.5218 19.3419 39.6211 20.456 39.6211H29.8308C30.933 39.6211 31.8337 40.5099 31.8337 41.624C31.8337 42.7262 30.933 43.6269 29.8308 43.6269Z" fill="#194F82"/>
<path d="M29.8308 34.7021H20.456C19.3538 34.7021 18.4531 33.8133 18.4531 32.6992C18.4531 31.597 19.3419 30.6963 20.456 30.6963H29.8308C30.933 30.6963 31.8337 31.5851 31.8337 32.6992C31.8337 33.8133 30.933 34.7021 29.8308 34.7021Z" fill="#194F82"/>
<path d="M31.1345 15.8578H27.7923V12.5156C27.7923 11.4134 26.9035 10.5127 25.7894 10.5127C24.6753 10.5127 23.7865 11.4015 23.7865 12.5156V15.8578H20.4443C19.3421 15.8578 18.4414 16.7466 18.4414 17.8607C18.4414 18.9629 19.3302 19.8636 20.4443 19.8636H23.7865V23.2058C23.7865 24.308 24.6753 25.2087 25.7894 25.2087C26.9035 25.2087 27.7923 24.3199 27.7923 23.2058V19.8636H31.1345C32.2367 19.8636 33.1374 18.9748 33.1374 17.8607C33.1376 16.7466 32.2367 15.8578 31.1345 15.8578Z" fill="#194F82"/>
<path d="M63.8571 18.3229L52.266 2.38224C51.1874 0.888801 49.4333 0 47.5963 0H12.7992C9.61108 0 7.01562 2.59564 7.01562 5.78362V66.2164C7.01562 69.4046 9.61126 72 12.7992 72H59.1993C62.3875 72 64.9829 69.4044 64.9829 66.2164V21.7245C64.9593 20.4919 64.5801 19.3303 63.8571 18.3229ZM51.5193 8.15412L59.0453 18.5007H51.5193V8.15412ZM60.9652 66.1927C60.9652 67.1646 60.1711 67.9586 59.1993 67.9586H12.7992C11.8274 67.9586 11.0334 67.1646 11.0334 66.1927V5.79554C11.0334 4.82369 11.8274 4.02967 12.7992 4.02967H47.5252V20.5156C47.5252 21.6178 48.414 22.5185 49.5281 22.5185H60.9769L60.9652 66.1927Z" fill="#194F82"/>
<path d="M51.5215 18.5009H59.0475L51.5215 8.1543V18.5009Z" fill="#56ACE0"/>
<path d="M49.7313 33.1142C49.7313 32 48.8306 31.0874 47.7045 31.0874C46.7563 31.0874 45.9504 31.7274 45.7372 32.6401C45.2394 34.5718 42.4779 34.7972 41.8379 32.6401C41.6245 31.7157 40.8068 31.0874 39.8705 31.0874C38.7564 31.0874 37.8438 31.9881 37.8438 33.1142C37.8438 35.7334 41.1031 39.7037 43.7935 42.2757C46.4837 39.7039 49.7313 35.7215 49.7313 33.1142Z" fill="#56ACE0"/>
<path d="M47.7164 27.0933C46.2232 27.0933 44.8601 27.6266 43.7934 28.5392C42.7268 27.6385 41.352 27.0933 39.8705 27.0933C36.54 27.0933 33.8379 29.7954 33.8379 33.1258C33.8379 39.0044 41.6008 45.7599 42.4898 46.5185C43.3549 47.1586 44.2201 47.1586 45.0854 46.5185C45.9742 45.7718 53.7373 39.0044 53.7373 33.1258C53.7371 29.8073 51.023 27.0933 47.7164 27.0933ZM37.832 33.1139C37.832 31.9998 38.7327 31.0872 39.8587 31.0872C40.8069 31.0872 41.6129 31.7272 41.8261 32.6398C42.4542 34.7969 45.2157 34.5716 45.7254 32.6398C45.9388 31.7155 46.7565 31.0872 47.6928 31.0872C48.8069 31.0872 49.7195 31.9879 49.7195 33.1139C49.7195 35.7213 46.4602 39.7035 43.7698 42.2755C41.0911 39.7154 37.832 35.7332 37.832 33.1139Z" fill="#194F82"/>
</g>
<defs>
<clipPath id="clip0_774_3543">
<rect width="72" height="72" fill="white"/>
</clipPath>
</defs>
</svg>
