<svg width="72" height="72" viewBox="0 0 72 72" fill="none" xmlns="http://www.w3.org/2000/svg">
<path d="M55.2 0H36.24H16.8C7.44 0 0 7.44 0 16.8V40.8C0 49.2 6.24 56.16 14.4 57.36V69.6C14.4 70.56 14.88 71.28 15.6 71.76C16.08 72 16.32 72 16.8 72C17.28 72 17.76 71.76 18.24 71.52L36.24 58.08L36.96 57.6H55.2C64.56 57.6 72 50.16 72 40.8V16.8C72 7.44 64.56 0 55.2 0Z" fill="#FFC10A"/>
<path d="M36.2404 14.3999V19.1999H16.8004C15.6004 19.1999 14.4004 17.9999 14.4004 16.7999C14.4004 15.5999 15.6004 14.3999 16.8004 14.3999H36.2404Z" fill="#34B0C0"/>
<path d="M36.2404 28.7998V33.5998H16.8004C15.6004 33.5998 14.4004 32.3998 14.4004 31.1998C14.4004 29.9998 15.6004 28.7998 16.8004 28.7998H36.2404Z" fill="#34B0C0"/>
<path d="M16.8004 19.1999H36.2404H55.2004C56.4004 19.1999 57.6004 17.9999 57.6004 16.7999C57.6004 15.5999 56.4004 14.3999 55.2004 14.3999H36.2404H16.8004C15.6004 14.3999 14.4004 15.5999 14.4004 16.7999C14.4004 17.9999 15.6004 19.1999 16.8004 19.1999Z" fill="#3F51B5"/>
<path d="M55.2004 28.7998H36.2404H16.8004C15.6004 28.7998 14.4004 29.9998 14.4004 31.1998C14.4004 32.3998 15.6004 33.5998 16.8004 33.5998H36.2404H55.2004C56.4004 33.5998 57.6004 32.3998 57.6004 31.1998C57.6004 29.9998 56.4004 28.7998 55.2004 28.7998Z" fill="#3F51B5"/>
</svg>
